<?xml version="1.0" encoding="UTF-8" standalone="no"?>
<svg
   version="1.1"
   x="0px"
   y="0px"
   viewBox="0 0 283.46 79.33"
   style="enable-background:new 0 0 283.46 79.33;"
   xml:space="preserve"
   id="svg25"
   sodipodi:docname="ctflime.svg"
   inkscape:version="1.1.1 (3bf5ae0d25, 2021-09-20)"
   xmlns:inkscape="http://www.inkscape.org/namespaces/inkscape"
   xmlns:sodipodi="http://sodipodi.sourceforge.net/DTD/sodipodi-0.dtd"
   xmlns="http://www.w3.org/2000/svg"
   xmlns:svg="http://www.w3.org/2000/svg"><defs
   id="defs29" /><sodipodi:namedview
   id="namedview27"
   pagecolor="#505050"
   bordercolor="#ffffff"
   borderopacity="1"
   inkscape:pageshadow="0"
   inkscape:pageopacity="0"
   inkscape:pagecheckerboard="1"
   showgrid="false"
   showguides="false"
   inkscape:zoom="2.8284271"
   inkscape:cx="174.4786"
   inkscape:cy="24.571961"
   inkscape:window-width="1920"
   inkscape:window-height="1009"
   inkscape:window-x="1912"
   inkscape:window-y="-8"
   inkscape:window-maximized="1"
   inkscape:current-layer="Layer_1" />
<style
   type="text/css"
   id="style2">
	.st0{fill:#E3000B;}
	.st1{fill:#FFFFFF;}
</style>
<g
   id="Layer_1">
	<polygon
   class="st0"
   points="0,79.52 154.36,79.52 283.46,79.52 283.46,0.19 0,0.19 33.23,40.29  "
   id="polygon4"
   style="fill:#208020;fill-opacity:1" />
	<polygon
   class="st1"
   points="61.92,57.92 80.47,57.92 80.47,51.68 74.06,51.68 74.06,51.68 69.3,51.68 69.3,27.9 74.06,27.9    74.06,27.9 80.47,27.9 80.47,21.02 61.92,21.02  "
   id="polygon6" />
	<polygon
   class="st1"
   points="86.32,28.11 91.6,28.11 91.6,57.92 98.98,57.92 98.98,28.11 104.25,28.11 104.25,21.02 86.32,21.02     "
   id="polygon8" />
	<polygon
   class="st1"
   points="110.3,57.63 117.69,57.63 117.69,42.88 126.9,42.88 126.9,37.15 117.69,37.15 117.69,27.9    129.02,27.9 129.02,21.02 110.3,20.73  "
   id="polygon10" />
	<path
   id="polygon12"
   class="st1"
   style="fill:#ffffff"
   d="m 188.60156,21.145 h -4.43 v 32.58 h -0.007 v 4.32 h 15.5 v -4.32 h -11.06344 z"
   sodipodi:nodetypes="ccccccccc" />
	<rect
   x="204.685"
   y="21.02"
   class="st1"
   width="4.4299998"
   height="36.900002"
   id="rect14" />
	<polygon
   class="st1"
   points="218.89,21.02 214.52,21.02 214.52,57.92 218.89,57.92 218.89,31.78 224.16,45.06 229.43,31.78 229.43,57.92 233.81,57.92 233.81,21.02 229.43,21.02 224.16,34.52 "
   id="polygon16"
   transform="translate(1.375)" />
	<polygon
   class="st1"
   points="244.77,41.58 252.15,41.58 252.15,37.26 244.77,37.26 244.77,25.34 256.88,25.34 258.04,21.02 240.34,21.02 240.34,57.92 257.85,57.92 256.69,53.6 244.77,53.6 "
   id="polygon18"
   transform="translate(1.375)" />
	
	
</g>
<g
   style="overflow:visible"
   id="g252"
   transform="matrix(0.17035803,0,0,0.16292169,133.20949,18.10285)"><g
     clip-rule="evenodd"
     fill-rule="evenodd"
     id="g135"
     transform="translate(-15.568825,-53.489685)"><path
       d="M 122.29,0 C 77.508,9.288 45.684,23.688 25.308,44.316 5.076,65.016 4.572,95.328 1.296,122.47 c -3.384,26.964 0.468,59.364 4.212,82.62 3.708,23.04 9.288,38.88 18,55.296 8.676,16.309 21.384,29.484 33.66,42.048 12.24,12.42 20.304,20.88 39.06,32.473 18.792,11.556 44.928,33.912 72.143,36.647 27.109,2.592 56.125,-4.319 88.85,-20.88 18.035,-14.904 29.412,-34.416 35.1,-59.508 5.363,-25.309 4.283,-59.58 -2.125,-90.324 C 283.68,169.99 267.05,134.17 254.053,108.394 241.02,82.546 234.612,66.094 212.615,47.806 c -22.25,-18.22 -51.81,-33.88 -90.33,-47.812 z"
       fill="#abd148"
       id="path31" /><path
       d="m 161.14,368.1 c -8.82,-2.987 -35.713,-15.66 -51.661,-25.235 -15.876,-9.612 -28.44,-17.641 -42.696,-31.86 -14.4,-14.436 -34.452,-39.384 -42.66,-53.46 -8.172,-14.04 -11.052,-35.172 -6.012,-30.061 5.148,5.185 28.836,50.688 36.072,60.696 6.948,9.756 0.756,-5.328 6.012,-1.8 5.328,3.6 17.352,17.46 25.236,22.824 7.74,5.22 14.796,2.844 21.024,8.424 6.12,5.544 6.516,17.46 15.624,24.624 9.036,7.092 31.859,12.96 38.484,17.46 6.48,4.37 9.07,11.1 0.58,8.4 z"
       fill="#9ed231"
       id="path33" /><path
       d="M 31.896,216.43 C 27,193.534 25.452,155.41 25.848,130.102 26.172,104.722 28.764,82.798 34.164,65.734 39.492,48.706 45.792,38.014 57.636,28.654 69.48,19.19 89.244,11.63 104.58,9.722 c 15.228,-1.98 26.352,-0.288 43.92,7.56 17.568,7.884 42.623,20.412 60.588,39.384 17.82,18.936 32.977,47.952 45.469,73.44 12.348,25.452 22.932,53.496 28.008,78.012 4.896,24.443 3.455,46.728 1.512,67.392 -2.016,20.484 -4.248,40.428 -13.645,54.54 -9.719,13.932 -26.568,23.796 -43.164,28.764 -16.596,4.788 -35.064,7.38 -55.26,0 -20.34,-7.632 -45.396,-29.052 -65.16,-44.676 -19.872,-15.804 -39.6,-32.004 -52.236,-48.456 -12.576,-16.36 -17.976,-26.62 -22.728,-49.23 z"
       fill="#e7f2d6"
       id="path35" /><path
       d="M 140.18,171 C 113.216,150.12 92.588,133.488 77.324,120.276 62.1,107.096 54.108,102.486 49.32,92.264 44.496,81.896 42.3,69.116 48.564,58.928 54.792,48.632 75.456,26.312 86.4,31.676 c 10.872,5.508 19.512,39.708 27.288,59.832 7.704,20.124 13.968,39.636 18.936,59.796 2.51,6.55 5.03,13.1 7.55,19.69 z"
       fill="#abd148"
       id="path37" /><path
       d="M 133.38,130.86 C 130.32,117.18 126.072,102.564 120.492,86.184 114.84,69.624 99.18,44.46 100.044,33.192 c 0.936,-11.196 17.424,-14.4 25.74,-13.644 8.28,0.756 15.912,6.768 23.472,18.18 -2.556,-0.396 -2.556,-0.396 0,0 2.557,0.36 11.916,-3.276 15.156,2.268 3.133,5.436 5.184,9.288 3.779,30.312 -1.619,21.204 -5.723,52.452 -12.852,95.4 -1.549,-1.188 -3.061,-1.692 -4.535,-1.512 -1.549,0.072 -3.025,0.828 -4.573,2.268 -4.28,-11.85 -8.57,-23.73 -12.85,-35.61 z"
       fill="#abd148"
       id="path39" /><path
       d="m 165.17,163.44 c -0.145,-11.412 8.389,-46.368 12.133,-63.612 3.635,-17.316 4.787,-35.676 9.828,-39.384 4.967,-3.6 12.635,9.432 19.691,17.424 7.02,7.776 18.504,19.512 21.959,29.52 3.205,10.044 6.193,20.196 -2.268,30.312 -8.711,9.972 -38.051,25.128 -48.455,29.52 -10.3,4.28 -12.78,7.38 -12.89,-3.78 z"
       fill="#abd148"
       id="path41" /><path
       d="m 172.76,180.11 c 2.953,-3.888 14.869,-5.436 25.74,-10.62 10.908,-5.256 30.168,-18.18 38.629,-20.448 8.135,-2.376 6.012,-0.468 10.584,6.84 4.5,7.38 13.752,26.964 16.668,37.08 2.916,9.936 6.588,20.52 0.756,22.716 -6.084,2.052 -22.32,-5.939 -36.361,-9.828 -14.184,-4.032 -38.23,-9.324 -47.699,-13.644 -9.43,-4.33 -11.23,-8.36 -8.32,-12.1 z"
       fill="#abd148"
       id="path43" /><path
       d="m 171.25,193.72 c 5.688,-0.18 30.023,13.86 44.676,18.937 14.58,4.823 32.545,5.544 41.652,10.619 8.82,5.076 9.217,12.097 11.34,19.692 2.016,7.452 1.943,17.676 0.756,24.984 -1.332,7.344 -2.16,18.216 -8.316,18.18 -6.264,-0.36 -19.475,-11.088 -28.799,-19.692 -9.576,-8.783 -18.793,-23.004 -27.252,-31.823 -8.568,-8.893 -16.885,-13.536 -22.717,-20.448 -5.79,-6.95 -16.88,-20.2 -11.34,-20.45 z"
       fill="#abd148"
       id="path45" /><path
       d="m 128.81,174.82 c -6.516,-7.956 -33.156,-25.56 -47.7,-37.116 -14.51,-11.56 -30.998,-30.24 -38.63,-31.07 -7.596,-0.648 -6.768,16.416 -6.804,26.496 -0.216,9.828 -0.792,25.416 6.048,32.58 6.912,6.984 21.816,6.84 34.848,9.864 12.996,3.024 33.48,8.388 42.408,8.316 8.71,-0.18 16.02,-1.44 9.83,-9.07 z"
       fill="#abd148"
       id="path47" /><path
       d="m 141.7,199.04 c -13.14,-2.664 -27.252,-4.428 -43.164,-5.328 -15.948,-0.864 -38.988,-8.892 -51.48,0 -12.492,8.892 -1.404,24.768 1.512,35.604 2.916,10.8 6.624,16.955 15.876,28.764 9.36,11.88 29.916,36.468 39.384,41.652 9.396,5.004 11.304,-0.937 16.668,-11.341 5.364,-10.512 11.556,-35.676 15.156,-50.76 3.55,-15 5.5,-27.63 6.04,-38.58 z"
       fill="#abd148"
       id="path49" /><path
       d="m 146.99,228.56 c -2.412,9.181 -5.904,23.221 -9.072,37.116 -3.312,13.896 -9.936,34.74 -9.864,45.433 0,10.476 3.168,11.376 10.62,17.424 7.56,5.976 23.184,15.407 34.092,18.18 10.873,2.628 25.129,1.08 30.275,-2.304 4.861,-3.492 4.285,-4.032 -0.756,-18.145 -5.256,-14.472 -22.176,-47.016 -29.52,-66.672 -7.271,-19.691 -10.152,-41.76 -13.645,-49.968 -3.563,-8.172 -5.615,-1.656 -7.559,1.512 -2.12,3.14 -2.3,8.25 -4.57,17.43 z"
       fill="#abd148"
       id="path51" /><path
       d="m 169.7,217.98 c 2.412,9.108 5.186,22.104 11.377,38.593 6.156,16.38 16.848,45.792 24.984,59.075 7.92,13.177 14.795,20.845 22.715,19.692 7.885,-1.368 21.42,-19.8 24.229,-27.252 2.557,-7.452 -1.043,-8.172 -8.316,-17.424 -7.523,-9.504 -28.188,-29.7 -35.604,-38.628 -7.344,-8.929 -2.809,-7.849 -8.316,-14.4 -5.652,-6.66 -19.26,-19.152 -24.984,-24.983 -5.688,-5.94 -8.207,-10.692 -9.107,-9.828 -1.01,0.83 0.47,6.16 3.02,15.16 z"
       fill="#abd148"
       id="path53" /><path
       d="m 188.64,251.28 c -1.404,0.107 4.5,17.172 9.107,26.495 4.645,9.108 16.633,27.9 18.18,28.045 1.225,-0.145 -5.256,-18.937 -9.863,-28.045 -4.69,-9.33 -15.95,-26.39 -17.43,-26.5 z"
       fill="#e7f2d6"
       id="path55" /><path
       d="m 212.87,269.46 c 1.621,-0.324 20.27,24.048 22.752,29.52 2.125,5.328 -5.219,7.057 -9.107,2.269 -3.96,-5.15 -15.12,-31.25 -13.64,-31.79 z"
       fill="#e7f2d6"
       id="path57" /><path
       d="m 198.5,217.19 c -0.863,-0.144 7.561,5.221 12.096,9.864 4.355,4.608 13.465,17.172 14.4,17.424 0.791,0.036 -4.68,-12.096 -9.072,-16.668 -4.57,-4.67 -16.49,-10.43 -17.43,-10.61 z"
       fill="#e7f2d6"
       id="path59" /><path
       d="m 220.46,221 c 2.375,0.396 27.898,11.592 31.031,13.608 2.771,1.764 -8.389,0.035 -13.607,-2.269 -5.21,-2.41 -19.72,-11.7 -17.42,-11.34 z"
       fill="#e7f2d6"
       id="path61" /><path
       d="m 200.02,174.02 c 1.836,-1.332 0.145,0.576 7.561,-1.512 7.344,-2.232 33.443,-11.196 36.359,-11.34 2.592,-0.108 -11.699,7.308 -19.691,10.584 -8.1,3.096 -23.869,7.92 -28.008,8.352 -4.11,0.33 1.83,-4.89 3.78,-6.08 z"
       fill="#e7f2d6"
       id="path63" /><path
       d="m 221.98,192.2 c 1.547,0.864 9.576,2.052 15.912,3.023 6.191,0.828 22.607,3.061 21.203,2.269 -1.691,-1.044 -24.012,-6.624 -30.313,-7.561 -6.19,-0.89 -8.46,1.34 -6.8,2.27 z"
       fill="#e7f2d6"
       id="path65" /><path
       d="m 178.06,152.82 c 0.719,0.72 13.967,-7.524 21.959,-13.608 7.813,-6.192 25.488,-21.816 24.984,-22.716 -0.793,-0.864 -20.881,11.232 -28.764,17.388 -7.92,6.12 -18.8,17.9 -18.18,18.94 z"
       fill="#e7f2d6"
       id="path67" /><path
       d="m 198.5,115.74 c 2.125,-1.188 12.133,-11.916 12.096,-12.888 -0.145,-1.008 -10.908,4.5 -12.852,6.804 -2.05,2.13 -1.48,7.17 0.75,6.09 z"
       fill="#e7f2d6"
       id="path69" /><path
       d="m 155.34,61.956 c 0.611,0.684 0.863,21.456 0.756,31.068 -0.145,9.468 -0.973,26.28 -1.512,25.74 -0.793,-0.756 -2.34,-20.052 -2.268,-29.556 0.07,-9.572 2.37,-27.86 3.02,-27.248 z"
       fill="#e7f2d6"
       id="path71" /><path
       d="m 125.03,40.752 c 1.368,3.348 8.316,39.744 8.352,43.92 -0.036,3.888 -6.984,-12.348 -8.352,-19.692 -1.44,-7.452 -1.44,-27.468 0,-24.228 z"
       fill="#e7f2d6"
       id="path73" /><path
       d="m 133.38,96.804 c -0.324,0.252 1.728,10.404 3.78,18.936 1.836,8.532 7.128,31.86 7.56,31.788 0.36,-0.432 -3.492,-24.768 -5.292,-33.3 -1.95,-8.64 -5.73,-17.642 -6.05,-17.426 z"
       fill="#e7f2d6"
       id="path75" /><path
       d="m 100.8,82.404 c 2.088,3.6 10.476,30.132 13.644,40.14 2.988,9.9 6.444,22.32 4.536,18.936 -2.124,-3.672 -13.608,-30.24 -16.668,-40.14 -3.058,-10.008 -3.562,-22.428 -1.51,-18.936 z"
       fill="#e7f2d6"
       id="path77" /><path
       d="m 65.196,86.184 c 1.332,2.268 16.272,19.224 18.18,20.448 1.62,1.008 -4.464,-10.188 -7.56,-13.608 -3.168,-3.49 -11.844,-9.106 -10.62,-6.838 z"
       fill="#e7f2d6"
       id="path79" /><path
       d="m 69.012,58.176 c -0.144,0.612 6.084,10.62 7.56,12.096 1.368,1.368 1.944,-1.836 0.756,-3.78 -1.296,-2.052 -8.28,-9.036 -8.316,-8.316 z"
       fill="#e7f2d6"
       id="path81" /><path
       d="m 75.816,54.396 c 0.54,1.512 11.124,16.596 12.888,18.18 1.62,1.44 -0.972,-6.084 -3.06,-9.108 C 83.412,60.3 75.276,52.92 75.816,54.396 Z"
       fill="#e7f2d6"
       id="path83" /><path
       d="m 98.532,160.42 c -6.3,-2.916 -21.06,-11.304 -24.984,-12.132 -3.96,-0.936 -4.752,3.888 1.512,6.84 6.3,2.952 31.5,9.576 35.604,10.584 3.78,0.79 -5.9,-2.41 -12.128,-5.29 z"
       fill="#e7f2d6"
       id="path85" /><path
       d="m 50.832,161.17 c 3.528,1.368 32.436,7.596 34.812,7.56 2.16,-0.144 -15.408,-7.128 -21.204,-8.316 -6.012,-1.29 -17.028,-0.71 -13.608,0.76 z"
       fill="#e7f2d6"
       id="path87" /><path
       d="m 56.88,200.56 c 2.556,-0.54 41.256,1.944 46.944,3.024 5.292,0.972 -6.48,3.456 -14.364,3.023 -7.952,-0.54 -34.916,-5.61 -32.576,-6.04 z"
       fill="#e7f2d6"
       id="path89" /><path
       d="m 109.91,210.38 c -0.072,-1.008 -12.852,4.716 -20.448,7.596 -7.776,2.88 -24.912,7.849 -25.02,9.072 0.108,0.9 17.244,-0.252 25.02,-3.023 7.594,-2.85 20.378,-12.67 20.448,-13.65 z"
       fill="#e7f2d6"
       id="path91" /><path
       d="m 129.56,218.74 c 0.792,1.979 -3.06,34.02 -5.292,43.92 -2.304,9.72 -7.524,16.128 -8.316,14.363 -0.864,-2.052 0.648,-15.947 3.024,-25.739 2.31,-9.83 9.59,-34.42 10.59,-32.54 z"
       fill="#e7f2d6"
       id="path93" /><path
       d="m 149.26,264.17 c -0.648,1.188 -5.724,35.676 -6.048,41.652 -0.432,5.651 2.772,0.18 3.78,-6.841 1.04,-7.13 2.77,-35.86 2.27,-34.81 z"
       fill="#e7f2d6"
       id="path95" /><path
       d="m 157.61,249.77 c -0.576,1.261 1.98,21.601 5.293,31.032 3.313,9.324 13.752,25.236 14.4,24.264 0.467,-1.296 -8.137,-21.743 -11.377,-31.067 -3.38,-9.32 -7.77,-25.3 -8.31,-24.22 z"
       fill="#e7f2d6"
       id="path97" /><path
       d="m 16.128,206.35 c -2.124,-0.792 -7.02,2.305 -7.596,3.313 -0.504,0.899 3.42,0.647 4.536,2.16 0.936,1.403 0.36,5.651 1.62,6.228 1.188,0.36 5.508,-1.656 5.76,-3.563 0.108,-1.98 -2.304,-7.38 -4.32,-8.14 z"
       fill="#d1eca9"
       id="path99" /><path
       d="m 18.216,204.84 c -2.016,-0.756 -7.128,2.232 -7.56,3.276 -0.576,0.792 3.42,0.72 4.5,2.159 0.936,1.404 0.36,5.652 1.62,6.229 1.188,0.36 5.508,-1.656 5.76,-3.564 0.108,-2.03 -2.304,-7.32 -4.32,-8.11 z"
       fill="#86a338"
       id="path101" /><path
       d="m 91.116,326.34 c -0.756,1.152 6.588,9.252 9.108,10.008 2.268,0.504 6.588,-4.859 5.04,-6.516 -1.62,-1.73 -13.28,-4.61 -14.144,-3.49 z"
       fill="#d1eca9"
       id="path103" /><path
       d="m 93.42,325.15 c -0.756,1.044 6.588,9.323 9.108,9.972 2.304,0.468 6.516,-4.788 5.004,-6.48 -1.58,-1.72 -13.318,-4.6 -14.11,-3.49 z"
       fill="#86a338"
       id="path105" /><path
       d="m 38.412,271.48 c -0.54,0.756 -0.144,1.98 0.864,2.7 1.044,0.72 2.304,0.72 2.844,-0.036 0.54,-0.756 0.18,-1.979 -0.864,-2.7 -1.008,-0.76 -2.268,-0.72 -2.844,0.04 z"
       fill="#d1eca9"
       id="path107" /><path
       d="m 38.736,270.72 c -0.54,0.756 -0.144,1.98 0.864,2.736 1.044,0.72 2.304,0.684 2.844,-0.072 0.54,-0.756 0.144,-1.944 -0.864,-2.7 -1.044,-0.73 -2.304,-0.73 -2.844,0.03 z"
       fill="#86a338"
       id="path109" /><path
       d="m 3.096,123.8 c -0.54,0.756 -0.144,1.98 0.864,2.7 1.044,0.756 2.304,0.72 2.844,-0.036 0.54,-0.756 0.18,-1.98 -0.864,-2.7 -1.008,-0.71 -2.304,-0.71 -2.844,0.04 z"
       fill="#d1eca9"
       id="path111" /><path
       d="m 3.42,123.08 c -0.54,0.756 -0.18,1.98 0.864,2.7 1.008,0.72 2.304,0.72 2.844,-0.036 0.54,-0.756 0.144,-1.98 -0.864,-2.7 -1.044,-0.75 -2.304,-0.71 -2.844,0.04 z"
       fill="#86a338"
       id="path113" /><path
       d="m 142.63,355.36 c -0.54,0.757 -0.144,1.98 0.9,2.7 1.008,0.756 2.268,0.72 2.808,-0.036 0.54,-0.756 0.18,-1.979 -0.864,-2.699 -1.01,-0.76 -2.27,-0.72 -2.85,0.04 z"
       fill="#d1eca9"
       id="path115" /><path
       d="m 142.96,354.64 c -0.54,0.756 -0.144,1.944 0.864,2.7 1.044,0.72 2.304,0.72 2.844,-0.036 0.54,-0.792 0.144,-1.979 -0.864,-2.736 -1.01,-0.72 -2.3,-0.68 -2.84,0.08 z"
       fill="#86a338"
       id="path117" /><path
       d="m 11.304,89.388 c -0.972,1.332 -0.288,3.456 1.512,4.752 1.8,1.296 4.068,1.26 5.004,-0.072 0.972,-1.332 0.288,-3.492 -1.512,-4.788 -1.8,-1.296 -4.068,-1.26 -5.004,0.108 z"
       fill="#d1eca9"
       id="path119" /><path
       d="m 11.844,88.092 c -0.972,1.332 -0.288,3.456 1.512,4.752 1.836,1.296 4.068,1.26 5.04,-0.072 0.936,-1.332 0.288,-3.492 -1.548,-4.788 -1.8,-1.296 -4.032,-1.26 -5.004,0.108 z"
       fill="#86a338"
       id="path121" /><path
       d="m 22.572,237.85 c -0.972,1.332 -0.288,3.492 1.512,4.788 1.8,1.296 4.068,1.26 5.04,-0.071 0.936,-1.368 0.252,-3.492 -1.548,-4.788 -1.8,-1.3 -4.032,-1.26 -5.004,0.07 z"
       fill="#d1eca9"
       id="path123" /><path
       d="m 23.112,236.56 c -0.972,1.332 -0.288,3.492 1.548,4.788 1.8,1.296 4.032,1.26 5.004,-0.072 0.936,-1.367 0.288,-3.491 -1.548,-4.788 -1.8,-1.3 -4.032,-1.27 -5.004,0.07 z"
       fill="#86a338"
       id="path125" /><path
       d="m 69.552,305.82 c -0.54,0.756 -0.144,1.979 0.864,2.699 1.044,0.756 2.304,0.721 2.844,-0.036 0.54,-0.756 0.18,-1.979 -0.864,-2.699 -1.008,-0.75 -2.268,-0.72 -2.844,0.04 z"
       fill="#d1eca9"
       id="path127" /><path
       d="m 69.876,305.1 c -0.54,0.756 -0.144,1.944 0.864,2.7 1.044,0.72 2.304,0.72 2.844,-0.036 0.54,-0.792 0.144,-1.979 -0.864,-2.735 -1.044,-0.71 -2.304,-0.68 -2.844,0.08 z"
       fill="#86a338"
       id="path129" /><path
       d="m 30.564,47.916 c -0.54,0.756 -0.144,1.944 0.864,2.7 1.044,0.72 2.304,0.72 2.844,-0.072 0.54,-0.756 0.18,-1.944 -0.864,-2.7 -1.008,-0.72 -2.304,-0.72 -2.844,0.072 z"
       fill="#d1eca9"
       id="path131" /><path
       d="m 30.888,47.16 c -0.54,0.756 -0.18,1.979 0.864,2.7 1.008,0.756 2.304,0.72 2.844,-0.036 0.54,-0.756 0.144,-1.98 -0.864,-2.7 -1.044,-0.756 -2.304,-0.72 -2.844,0.036 z"
       fill="#86a338"
       id="path133" /></g></g></svg>
